<svg width="37.001175" height="35.497070" viewBox="0 0 37.0012 35.4971" fill="none" xmlns="http://www.w3.org/2000/svg" xmlns:xlink="http://www.w3.org/1999/xlink">
	<desc>
			Created with Pixso.
	</desc>
	<defs/>
	<path id="Vector" d="M17.86 7.36C20.68 7.36 23.34 8.61 25.29 10.57L25.29 10.58C25.29 9.64 25.93 8.93 26.8 8.93L27.02 8.93C28.4 8.93 28.68 10.23 28.68 10.64L28.68 25.25C28.59 26.2 29.67 26.7 30.27 26.08C32.62 23.68 35.42 13.69 28.82 7.91C22.66 2.51 14.39 3.4 9.99 6.43C5.32 9.66 2.33 16.79 5.23 23.49C8.4 30.8 17.46 32.98 22.85 30.81C25.58 29.7 26.84 33.39 24 34.59C19.72 36.42 7.81 36.23 2.25 26.6C-1.51 20.09 -1.31 8.64 8.66 2.71C16.28 -1.83 26.34 -0.58 32.41 5.75C38.74 12.38 38.38 24.77 32.19 29.59C29.39 31.78 25.23 29.65 25.26 26.46L25.23 25.42C23.28 27.35 20.68 28.48 17.86 28.48C12.27 28.48 7.35 23.56 7.35 17.98C7.35 12.34 12.27 7.36 17.86 7.36L17.86 7.36ZM24.88 17.58C24.67 13.49 21.64 11.02 17.97 11.02L17.83 11.02C13.6 11.02 11.26 14.35 11.26 18.13C11.26 22.36 14.09 25.04 17.81 25.04C21.97 25.04 24.7 22 24.89 18.4L24.88 17.58Z" fill="#000000" fill-opacity="1.000000" fill-rule="nonzero"/>
</svg>
