<svg width="34.964844" height="34.039062" viewBox="0 0 34.9648 34.0391" fill="none" xmlns="http://www.w3.org/2000/svg" xmlns:xlink="http://www.w3.org/1999/xlink">
	<desc>
			Created with Pixso.
	</desc>
	<defs/>
	<path id="Vector" d="M17.48 0C7.82 -0.01 0 7.81 0 17.46C0 25.1 4.89 31.58 11.71 33.97C12.62 34.2 12.48 33.55 12.48 33.1L12.48 30.07C7.18 30.69 6.97 27.19 6.61 26.6C5.89 25.37 4.19 25.06 4.7 24.48C5.91 23.85 7.14 24.63 8.57 26.74C9.6 28.26 11.61 28.01 12.63 27.75C12.85 26.83 13.33 26.01 13.98 25.38C8.49 24.39 6.2 21.04 6.2 17.06C6.2 15.12 6.84 13.35 8.09 11.91C7.29 9.55 8.16 7.53 8.28 7.23C10.55 7.02 12.91 8.85 13.09 9C14.38 8.65 15.85 8.46 17.5 8.46C19.16 8.46 20.64 8.66 21.94 9.01C22.38 8.67 24.57 7.1 26.67 7.29C26.79 7.59 27.64 9.57 26.89 11.9C28.16 13.34 28.8 15.13 28.8 17.07C28.8 21.06 26.5 24.42 20.99 25.39C21.46 25.85 21.83 26.4 22.09 27.01C22.34 27.62 22.48 28.28 22.48 28.94L22.48 33.33C22.51 33.69 22.48 34.03 23.06 34.03C29.98 31.7 34.96 25.17 34.96 17.47C34.96 7.81 27.13 0 17.48 0Z" fill="#000000" fill-opacity="1.000000" fill-rule="nonzero"/>
</svg>
