<svg width="38.400002" height="38.400146" viewBox="0 0 38.4 38.4001" fill="none" xmlns="http://www.w3.org/2000/svg" xmlns:xlink="http://www.w3.org/1999/xlink">
	<desc>
			Created with Pixso.
	</desc>
	<defs/>
	<path id="Vector" d="M19.2 0C8.59 0 0 8.59 0 19.2C0 29.8 8.59 38.4 19.2 38.4C29.8 38.4 38.4 29.8 38.4 19.2C38.4 8.59 29.8 0 19.2 0ZM14.5 27.15L10.61 27.15L10.61 14.64L14.5 14.64L14.5 27.15ZM12.53 13.11C11.3 13.11 10.51 12.24 10.51 11.16C10.51 10.06 11.32 9.22 12.58 9.22C13.83 9.22 14.6 10.06 14.62 11.16C14.62 12.24 13.83 13.11 12.53 13.11ZM28.7 27.15L24.81 27.15L24.81 20.22C24.81 18.61 24.24 17.51 22.84 17.51C21.76 17.51 21.13 18.25 20.84 18.96C20.74 19.22 20.71 19.58 20.71 19.94L20.71 27.15L16.82 27.15L16.82 18.63C16.82 17.07 16.77 15.76 16.72 14.64L20.1 14.64L20.28 16.38L20.36 16.38C20.87 15.56 22.12 14.36 24.22 14.36C26.78 14.36 28.7 16.07 28.7 19.76L28.7 27.15Z" fill="#000000" fill-opacity="1.000000" fill-rule="nonzero"/>
</svg>
